# xmcd
#
# Track frame offsets:
#	150
#	14400
#	33270
#	49383
#	67641
#	80979
#	97242
#	116180
#	131380
#	151575
#	169185
#	183945
#	196333
#	209158
#	222846
#	234996
#	249919
#	265202
#	279592
#	297605
#	309468
#
# Disc length: 4345 seconds
#
# Revision: 1
# Processed by: cddbd v1.5.2PL0 Copyright (c) Steve Scherf et al.
# Submitted via: audiograbber 1.83.01
#
DISCID=3710f715
DTITLE=Various Artist - Halland's Country Hits Volume 2
DYEAR=1900
DGENRE=
TTITLE0=Jimmy Buffett - Come Monday
TTITLE1=Jimmy Buffett - Margaritaville
TTITLE2=Glen Campbell - A Lady Like You
TTITLE3=Mary Chapin Carpenter - Never Had It So Good
TTITLE4=Carlene Carter - Come On Back
TTITLE5=Carlene Carter - I Fell In Love
TTITLE6=Lionel Cartwright - Give Me His Last Chance
TTITLE7=Lionel Cartwright - I Watched It All On My Radio
TTITLE8=Rosanne Cash - Blue Moon With A Heartache
TTITLE9=Rosanne Cash - Runaway Train
TTITLE10=Rosanne Cash - Seven Year Ache
TTITLE11=Patsy Cline - Crazy
TTITLE12=Patsy Cline - I Fall To Pieces
TTITLE13=Patsy Cline - She's Got You
TTITLE14=John Conlee - Common Man
TTITLE15=John Conlee - Friday Night Blues
TTITLE16=John Conlee - Rose Colored Glasses
TTITLE17=Earl Thomas Conlee - Holding Her And Loving You
TTITLE18=Earl Thomas Conlee - I Can't Win For Losin' You
TTITLE19=Earl Thomas Conlee - I Have Loved You, Girl (But Not..)
TTITLE20=Earl Thomas Conlee - Once In A Blue Moon
EXTD=
EXTT0=
EXTT1=
EXTT2=
EXTT3=
EXTT4=
EXTT5=
EXTT6=
EXTT7=
EXTT8=
EXTT9=
EXTT10=
EXTT11=
EXTT12=
EXTT13=
EXTT14=
EXTT15=
EXTT16=
EXTT17=
EXTT18=
EXTT19=
EXTT20=
PLAYORDER=
